<svg id="Layer_1" data-name="Layer 1" xmlns="http://www.w3.org/2000/svg" viewBox="0 0 464.111 460.469">
  <defs>
    <style>
      .cls-1 {
        fill: #d9ecf1;
      }

      .cls-2 {
        fill: #1a1818;
      }
    </style>
  </defs>
  <title>Estela&amp;apos;s Logo</title>
  <g>
    <path class="cls-1" d="M470.6,348.983a33.834,33.834,0,0,1-14.358-2.467,62.946,62.946,0,0,1-13.32-7.5A104.458,104.458,0,0,1,430.4,328.251q-6.076-6.066-12.125-12.288Q412.2,309.741,406.23,304a91.174,91.174,0,0,0-12.2-9.893c2.233-.526,4.492-1.142,6.776-1.83a39.179,39.179,0,0,0,6.777-2.792,70.17,70.17,0,0,0,16.747-10.768A74.422,74.422,0,0,0,437.569,263.8a60.588,60.588,0,0,0,7.581-14.994,52.078,52.078,0,0,0,2.779-15.475,46.192,46.192,0,0,0-2.7-16.429,50.2,50.2,0,0,0-3.739-8.218,37.756,37.756,0,0,0-5.339-7.439,48.274,48.274,0,0,0-9.656-8.283c-1.2-.835-5.837-3.807-9.316-4.541a43.577,43.577,0,0,0-9.078-1.144,52.11,52.11,0,0,0-13.3,1.777,48.561,48.561,0,0,0-12.176,4.963,31.882,31.882,0,0,0-9,7.687,16.336,16.336,0,0,0-3.745,9.741q-.19,2.623,3,4.028a19.6,19.6,0,0,0,7.029,1.593,21.862,21.862,0,0,0,7.306-.843q3.462-1.03,3.843-3.653a18.74,18.74,0,0,1,4.871-10.024c2.5-2.562,5.254-4.831,8.616-5.344,8.56-1.306,17.861,7.782,20.133,18.858,1.42,6.921-1.278,21.229-3.83,24.8-4.218,5.9-10.151,9.429-15.829,12.182a37.25,37.25,0,0,1-17.145,3.936,32.473,32.473,0,0,1-15.033-4.313c1.113-6.917,1.361-12.572.542-16.742a8.065,8.065,0,0,0-2.921-5.233,11.16,11.16,0,0,0-5.138-2.216,20.156,20.156,0,0,0-6.016-.019,30.928,30.928,0,0,0-5.19,1.192,38.079,38.079,0,0,1-1.659-7.519,39.451,39.451,0,0,1-.369-7.687,42.421,42.421,0,0,1,1.12-7.866,62.737,62.737,0,0,1,5.528-15.177A82.826,82.826,0,0,1,368,177.156a62.843,62.843,0,0,1,13.867-11.8.426.426,0,0,1,.283.092.357.357,0,0,0,.277.092,46.392,46.392,0,0,0,32.789,2.441l3.37-1.316a21.51,21.51,0,0,0,4.5-2.152,30.339,30.339,0,0,0,3.37-2.528,8.647,8.647,0,0,0,2.251-3.936,10.748,10.748,0,0,0,.185-3.376,8.582,8.582,0,0,0-2.245-4.5,17.841,17.841,0,0,0-4.594-3.561,28.957,28.957,0,0,0-6-2.435,30.464,30.464,0,0,0-6.648-1.125,61.057,61.057,0,0,0-13.307.375c0-.121-.029-.185-.092-.185s-.092-.063-.092-.19a41.848,41.848,0,0,1-1.783-14.987,51.706,51.706,0,0,1,3.093-14.8,49.863,49.863,0,0,1,7.213-13.117,40.406,40.406,0,0,1,10.964-9.926q5.99-3.939,11.241-3.936a15.708,15.708,0,0,1,8.991,2.528,19.233,19.233,0,0,1,6.18,7.121,24.762,24.762,0,0,1,2.81,10.024,33.559,33.559,0,0,1-1.12,11.051,25.491,25.491,0,0,1-5.621,10.307q-1.688,1.878-.941,3.468a6.142,6.142,0,0,0,3,2.712,19.882,19.882,0,0,0,5.338,1.691,25.325,25.325,0,0,0,6.088.375,19.433,19.433,0,0,0,5.528-1.125,5.777,5.777,0,0,0,3.468-3,26.743,26.743,0,0,0,2.152-14.894,41.609,41.609,0,0,0-5.246-15.362,51.23,51.23,0,0,0-11.149-13.4,46.168,46.168,0,0,0-28.479-11.518,57.383,57.383,0,0,0-11.992.652,47.981,47.981,0,0,0-10.4,2.908,58.276,58.276,0,0,0-8.148,4.028A47.164,47.164,0,0,0,374.566,95a56.511,56.511,0,0,0-8.622,15.275,59.2,59.2,0,0,0-3.653,17.514,49.176,49.176,0,0,0,2.152,17.33,36.607,36.607,0,0,0,1.218,3.468,20.915,20.915,0,0,0,1.593,3.093,97.54,97.54,0,0,0-16.672,9.458,67.721,67.721,0,0,0-12.557,11.34,80.2,80.2,0,0,0-10.393,15.645,71.144,71.144,0,0,0-6.094,16.77q-4.311,20.039,5.061,36.16a51.7,51.7,0,0,0,19.52,18.728c-1.13,4.571-2.363,9.4-3.827,14.775q-3.02,11.134-6.175,22.893t-6.131,23.508q-2.969,11.746-4.959,21.639T322.253,359.8q-.789,7.319.534,10.385c1.358,3.424,3.226,5.674,5.621,6.772a13.71,13.71,0,0,0,6.921,1.351,11.013,11.013,0,0,0,5.664-1.986c1.551-1.133,2.284-2.232,2.2-3.281q-.8-5.23,1.5-15.595t6.046-23.415q3.763-13.055,8.264-27.582t8.112-28.009c1.076-3.983,2-7.76,2.854-11.446a65.165,65.165,0,0,0,6.666.473,63.388,63.388,0,0,0,9.181-.658q4.493-.658,8.991-1.593a63.17,63.17,0,0,0,17.145-7.306c1.722-1.046,3.249-2.278,4.834-3.455a55.544,55.544,0,0,1-6.73,10.941A58.143,58.143,0,0,1,398.961,276a62.768,62.768,0,0,1-13.242,7.42,45.37,45.37,0,0,1-14.358,3.349,3,3,0,0,0-2.856,2.869,2.966,2.966,0,0,0,.467,2.155,3.117,3.117,0,0,0,1.765,1.195,14.182,14.182,0,0,0,3.012.96c1.064.214,2.129.422,3.193.636,3.635,1.6,7.451,4.518,11.5,8.776q6.037,6.377,12.515,14.754t13.32,17.389q6.855,9.007,13.787,16.507A85.945,85.945,0,0,0,441.957,364.3q6.932,4.781,13.787,4.622a12.984,12.984,0,0,0,8.464-3.265,23.441,23.441,0,0,0,5.427-6.861,18.424,18.424,0,0,0,2.155-6.784C471.945,350,471.556,348.983,470.6,348.983Z" transform="translate(-163.944 -75.331)"/>
    <path d="M470.6,349.083a34.173,34.173,0,0,1-11.93-1.573,55.384,55.384,0,0,1-10.913-5.142,97.892,97.892,0,0,1-18.649-15.252c-5.655-5.719-11.283-11.465-17.015-17.1l-4.281-4.246c-1.418-1.426-2.863-2.819-4.37-4.147a88.772,88.772,0,0,0-9.5-7.389l-.275-.185.325-.088,5.422-1.467a34.285,34.285,0,0,0,5.3-1.815q1.287-.554,2.534-1.2l2.532-1.224q2.507-1.261,4.907-2.719a73.287,73.287,0,0,0,17.068-14.444,77.681,77.681,0,0,0,6.722-8.976,60.574,60.574,0,0,0,5.2-9.917,51.718,51.718,0,0,0,4.01-21.874,48.433,48.433,0,0,0-6.254-21.3,46.3,46.3,0,0,0-3.016-4.712,37.747,37.747,0,0,0-3.679-4.208,45.873,45.873,0,0,0-4.1-3.806c-1.449-1.168-2.993-2.237-4.528-3.3a42.6,42.6,0,0,0-4.841-2.788,18.685,18.685,0,0,0-5.251-1.76,47.159,47.159,0,0,0-5.532-.806,39.383,39.383,0,0,0-5.581.017,53.51,53.51,0,0,0-11,1.943,48.341,48.341,0,0,0-10.325,4.223,32.706,32.706,0,0,0-8.7,6.879,20.144,20.144,0,0,0-3.122,4.551,15.235,15.235,0,0,0-1.481,5.271,4.538,4.538,0,0,0,.24,2.572,4.342,4.342,0,0,0,1.869,1.754,17.6,17.6,0,0,0,5.233,1.632,22.838,22.838,0,0,0,5.52.154,21.079,21.079,0,0,0,2.727-.44,11.644,11.644,0,0,0,2.579-.853,4.16,4.16,0,0,0,1.875-1.712,3.779,3.779,0,0,0,.376-1.225c.087-.473.188-.94.3-1.4a20.406,20.406,0,0,1,2.081-5.321,18.6,18.6,0,0,1,3.6-4.439,19.368,19.368,0,0,1,4.6-3.4,10.8,10.8,0,0,1,2.748-.957,10.566,10.566,0,0,1,1.449-.164c.242-.016.485-.046.727-.048l.726.046a13.845,13.845,0,0,1,5.535,1.553,21.333,21.333,0,0,1,4.673,3.307,26.835,26.835,0,0,1,3.695,4.351,27.542,27.542,0,0,1,2.7,5.02,26.677,26.677,0,0,1,1.645,5.466,40.375,40.375,0,0,1-.174,11.348,51.312,51.312,0,0,1-2.6,11.038,10.933,10.933,0,0,1-1.361,2.588c-.564.769-1.16,1.514-1.8,2.224a33.087,33.087,0,0,1-4.155,3.905,52.167,52.167,0,0,1-9.685,5.889,40.371,40.371,0,0,1-10.78,3.566,32.616,32.616,0,0,1-11.372.054,35.363,35.363,0,0,1-10.68-3.9l-.327-.179.059-.37a74.547,74.547,0,0,0,1-9.868,35.276,35.276,0,0,0-.19-4.916,12.725,12.725,0,0,0-1.228-4.6,6.413,6.413,0,0,0-1.427-1.8,10.59,10.59,0,0,0-1.964-1.316,11.689,11.689,0,0,0-4.587-1.227,25.4,25.4,0,0,0-9.625,1.321l-.533.168-.172-.526a39.873,39.873,0,0,1-1.209-4.587c-.315-1.569-.5-3.106-.686-4.68a41.377,41.377,0,0,1,.115-9.468,62.245,62.245,0,0,1,5.456-18.02,82.725,82.725,0,0,1,10.006-15.938,62.635,62.635,0,0,1,14.278-12.287l.145-.094.187,0a1.049,1.049,0,0,1,.675.234l.061.059c-.146-.138-.217-.1-.177-.109l.106-.016.158.075a45.774,45.774,0,0,0,32.341,2.384l-.048.016,3-1.172a30.819,30.819,0,0,0,2.907-1.2,18.59,18.59,0,0,0,2.668-1.591,28.5,28.5,0,0,0,2.477-1.923l-.054.053a10.589,10.589,0,0,0,1.557-2.168,6.54,6.54,0,0,0,.7-2.494,7.864,7.864,0,0,0-.08-2.61,7.529,7.529,0,0,0-1.019-2.4,14.1,14.1,0,0,0-3.869-3.749,24.027,24.027,0,0,0-4.924-2.495,30.42,30.42,0,0,0-5.355-1.487q-1.368-.247-2.756-.365c-.932-.06-1.892-.16-2.814-.2a64.841,64.841,0,0,0-11.229.522l-4.846.6,4.081-1.278s-.007,0,.017.088a.556.556,0,0,0,.152.239.644.644,0,0,0,.395.168.764.764,0,0,1-.535-.248.793.793,0,0,1-.176-.324,1.1,1.1,0,0,1-.038-.3l.03.2a42.57,42.57,0,0,1-1.861-10.748,49.382,49.382,0,0,1,.81-10.865,51.29,51.29,0,0,1,8.272-20.018,42.705,42.705,0,0,1,7.257-8.15,41.338,41.338,0,0,1,4.374-3.29,37.988,37.988,0,0,1,4.746-2.739,20.3,20.3,0,0,1,5.3-1.683,18.08,18.08,0,0,1,5.589.027,15.716,15.716,0,0,1,5.315,1.81,17.554,17.554,0,0,1,4.335,3.541,24.072,24.072,0,0,1,5.145,9.74,30.179,30.179,0,0,1,.7,10.957,36.581,36.581,0,0,1-1.019,5.4,25.209,25.209,0,0,1-2.017,5.158A27.1,27.1,0,0,1,439.173,127c-.277.347-.619.733-.873,1.032a4.294,4.294,0,0,0-.613.95,1.73,1.73,0,0,0,.162,1.831,7.879,7.879,0,0,0,3.989,2.655,22.943,22.943,0,0,0,5.053,1.178,20.636,20.636,0,0,0,10.17-1.118,5.316,5.316,0,0,0,1.9-1.341,4.2,4.2,0,0,0,.63-.945c.167-.359.356-.784.515-1.18a25.4,25.4,0,0,0,1.459-5,28.607,28.607,0,0,0-.149-10.413,43.53,43.53,0,0,0-8.836-18.962A51.128,51.128,0,0,0,436.462,82.2a47.722,47.722,0,0,0-4.815-2.171,43.511,43.511,0,0,0-5.038-1.559,45.193,45.193,0,0,0-10.455-1.385,50.928,50.928,0,0,0-20.694,3.623,54.084,54.084,0,0,0-9.386,4.872,45.767,45.767,0,0,0-8.043,6.8,54.771,54.771,0,0,0-11.086,17.877,57.6,57.6,0,0,0-3.776,20.713,48.094,48.094,0,0,0,1.262,10.457,40.519,40.519,0,0,0,1.506,5.049c.3.815.545,1.676.916,2.438a20.068,20.068,0,0,0,1.22,2.257l.586.936-1.009.455a98.145,98.145,0,0,0-14.879,8.253,70.693,70.693,0,0,0-12.857,11.008,77.407,77.407,0,0,0-16.42,29.416,57.577,57.577,0,0,0-2.3,16.691,45.361,45.361,0,0,0,7.071,23.908,50.613,50.613,0,0,0,18.34,17.075l.673.374-.19.734-3.917,15.113-4.058,15.049-2.029,7.525-1.965,7.538-3.931,15.076c-1.211,5.044-2.33,10.1-3.5,15.156l-1.729,7.582c-.506,2.54-.982,5.084-1.41,7.635s-.812,5.106-1.129,7.665a46.077,46.077,0,0,0-.453,7.605,12.651,12.651,0,0,0,.593,3.546,17.167,17.167,0,0,0,1.626,3.287,9.487,9.487,0,0,0,2.394,2.587,7.849,7.849,0,0,0,1.523.851,15.723,15.723,0,0,0,1.722.64,11.725,11.725,0,0,0,7.111-.015,9.073,9.073,0,0,0,3.078-1.709,4.608,4.608,0,0,0,1.062-1.206,1.706,1.706,0,0,0,.207-.59l.009-.133a.889.889,0,0,0-.008-.139l-.063-.489a33.986,33.986,0,0,1,.272-7.986c.351-2.613.857-5.19,1.434-7.739,2.322-10.161,5.083-20.212,8.161-30.141,2.991-9.957,6.064-19.9,8.93-29.874l4.366-14.95,1.088-3.739.949-3.772,1.9-7.544.143-.567.567.06c2.062.216,4.1.445,6.132.48s4.1-.056,6.137-.232c1.021-.09,2.039-.2,3.054-.343s2.028-.347,3.041-.519l6.084-1.063a59.027,59.027,0,0,0,11.531-4.177c1.851-.885,3.656-1.868,5.419-2.92a57.868,57.868,0,0,0,5.025-3.549l1.76-1.3-.938,1.979a54.583,54.583,0,0,1-9.4,14.012,59.706,59.706,0,0,1-13.086,10.637,56.294,56.294,0,0,1-15.5,6.614q-2.057.5-4.154.811c-.7.1-1.4.188-2.1.256l-1.05.091a5.774,5.774,0,0,0-.988.115,2.57,2.57,0,0,0-1.541.917,3.3,3.3,0,0,0-.594,1.754,2.5,2.5,0,0,0,.456,1.736,2.781,2.781,0,0,0,1.522,1.005l.027.007.024.011a13.883,13.883,0,0,0,2.978.953l3.148.637.038.008.033.015a30.747,30.747,0,0,1,7.347,4.825,67.493,67.493,0,0,1,6.2,6.185c3.912,4.318,7.6,8.835,11.13,13.459l10.59,13.868c3.512,4.637,7.067,9.231,10.858,13.638a124.306,124.306,0,0,0,12.054,12.559,72.968,72.968,0,0,0,6.831,5.385,27.132,27.132,0,0,0,7.755,3.8,17.873,17.873,0,0,0,8.554.468,12.536,12.536,0,0,0,3.984-1.6,17.516,17.516,0,0,0,3.3-2.789,22.566,22.566,0,0,0,4.73-7.214,17.079,17.079,0,0,0,1.2-4.153,9.423,9.423,0,0,0,.078-2.149,2.508,2.508,0,0,0-.28-1A.894.894,0,0,0,470.6,349.083Zm0-.2a1.1,1.1,0,0,1,.986.567,2.7,2.7,0,0,1,.311,1.081,9.615,9.615,0,0,1-.073,2.2,17.3,17.3,0,0,1-1.2,4.21,22.811,22.811,0,0,1-4.757,7.3,17.768,17.768,0,0,1-3.339,2.839,12.809,12.809,0,0,1-4.064,1.648,18.157,18.157,0,0,1-8.7-.447,27.444,27.444,0,0,1-7.857-3.82,73.305,73.305,0,0,1-6.879-5.39,124.672,124.672,0,0,1-12.127-12.56c-3.809-4.4-7.39-9-10.914-13.625l-10.629-13.835c-3.537-4.611-7.239-9.093-11.163-13.373a66.9,66.9,0,0,0-6.177-6.1,30.1,30.1,0,0,0-7.211-4.682l.07.022-3.152-.619a14.6,14.6,0,0,1-3.133-.984l.051.018a3.514,3.514,0,0,1-1.917-1.261,3.247,3.247,0,0,1-.613-2.226,4.036,4.036,0,0,1,.735-2.164,3.337,3.337,0,0,1,1.972-1.209,6.384,6.384,0,0,1,1.091-.138l1.04-.1c.69-.071,1.377-.162,2.063-.263q2.055-.315,4.075-.82a55.444,55.444,0,0,0,15.221-6.6,58.74,58.74,0,0,0,12.819-10.539,53.782,53.782,0,0,0,9.155-13.8l.821.676a58.729,58.729,0,0,1-5.1,3.632c-1.787,1.076-3.617,2.085-5.5,2.994a60.144,60.144,0,0,1-11.761,4.317l-6.145,1.1c-1.026.178-2.045.38-3.077.539s-2.074.267-3.115.364c-2.084.189-4.168.279-6.268.265s-4.192-.253-6.247-.459l.71-.507-1.872,7.582-.936,3.791-1.073,3.75-4.307,15c-2.832,10.018-5.85,19.947-8.795,29.91-3.032,9.937-5.735,19.957-8,30.07-.56,2.521-1.043,5.05-1.372,7.59a32.294,32.294,0,0,0-.233,7.557l.064.477a3.189,3.189,0,0,1,.022.347c0,.124-.009.236-.021.353a3.5,3.5,0,0,1-.412,1.245,6.344,6.344,0,0,1-1.473,1.725,10.92,10.92,0,0,1-3.683,2.07,13.593,13.593,0,0,1-8.232.063,17.6,17.6,0,0,1-1.933-.708,9.8,9.8,0,0,1-1.874-1.04,11.381,11.381,0,0,1-2.891-3.08,19.021,19.021,0,0,1-1.84-3.677,14.466,14.466,0,0,1-.724-4.108,47.886,47.886,0,0,1,.43-7.94c.306-2.6.692-5.185,1.126-7.759s.912-5.138,1.422-7.694l1.737-7.617c1.175-5.073,2.3-10.161,3.517-15.221l3.937-15.093,1.968-7.546,2.03-7.527,4.061-15.053,3.907-15.068.483,1.109a51.464,51.464,0,0,1-23.047-25.553,47.706,47.706,0,0,1-3.383-17.137,59.55,59.55,0,0,1,2.381-17.271,79.36,79.36,0,0,1,16.854-30.192,71.917,71.917,0,0,1,13.229-11.305,100.088,100.088,0,0,1,15.189-8.39l-.423,1.39a21.987,21.987,0,0,1-1.332-2.476c-.411-.856-.654-1.731-.975-2.6a42.374,42.374,0,0,1-1.558-5.26,50,50,0,0,1-1.292-10.872,59.454,59.454,0,0,1,3.937-21.393,56.591,56.591,0,0,1,11.5-18.459,47.569,47.569,0,0,1,8.373-7.05,55.865,55.865,0,0,1,9.7-5.014,52.672,52.672,0,0,1,21.411-3.718,46.948,46.948,0,0,1,10.833,1.456,45.169,45.169,0,0,1,5.233,1.631,49.414,49.414,0,0,1,4.987,2.26A52.785,52.785,0,0,1,453.88,94.665,45.159,45.159,0,0,1,463,114.36a30.261,30.261,0,0,1,.131,10.989,26.991,26.991,0,0,1-1.559,5.312c-.177.436-.352.831-.564,1.284a5.787,5.787,0,0,1-.861,1.285,6.893,6.893,0,0,1-2.455,1.742,22.124,22.124,0,0,1-11,1.224,24.474,24.474,0,0,1-5.4-1.271,14.951,14.951,0,0,1-2.567-1.216,6.7,6.7,0,0,1-2.192-2.074,3.551,3.551,0,0,1-.576-1.6,3.484,3.484,0,0,1,.314-1.685,5.809,5.809,0,0,1,.837-1.307c.328-.384.583-.668.867-1.021a25.567,25.567,0,0,0,2.89-4.343,28.17,28.17,0,0,0,2.886-10.01,28.685,28.685,0,0,0-.647-10.4,22.6,22.6,0,0,0-4.8-9.133c-4.472-5.4-12.641-6.51-18.824-3.368a36.571,36.571,0,0,0-4.569,2.632,39.886,39.886,0,0,0-4.225,3.168,41.261,41.261,0,0,0-7.027,7.872,49.882,49.882,0,0,0-8.071,19.458,48.011,48.011,0,0,0-.8,10.555,41.2,41.2,0,0,0,1.786,10.405l.048.157-.018.044s.005.006-.013-.068a.544.544,0,0,0-.124-.221.627.627,0,0,0-.432-.2.761.761,0,0,1,.709.546,1.05,1.05,0,0,1,.045.318l-.764-.675a66.167,66.167,0,0,1,11.467-.514c.972.046,1.9.145,2.858.209q1.448.126,2.88.386a31.751,31.751,0,0,1,5.588,1.56c3.585,1.385,7.133,3.407,9.426,6.778a8.841,8.841,0,0,1,1.189,2.814,9.114,9.114,0,0,1,.1,3.047,7.879,7.879,0,0,1-.839,2.944,11.859,11.859,0,0,1-1.751,2.439l-.025.028-.029.025a29.787,29.787,0,0,1-2.592,2.007,19.923,19.923,0,0,1-2.84,1.687,32.115,32.115,0,0,1-3.021,1.247l-2.982,1.162-.023.009-.024.007a47.026,47.026,0,0,1-33.237-2.5l.263.06a1.171,1.171,0,0,1-.314-.04.883.883,0,0,1-.417-.253l.061.058a.2.2,0,0,0,.11.05l.332-.1a61.476,61.476,0,0,0-14.011,12.012,81.562,81.562,0,0,0-9.879,15.685,61.125,61.125,0,0,0-5.379,17.661,40.243,40.243,0,0,0-.126,9.207c.178,1.523.364,3.087.664,4.578a38.752,38.752,0,0,0,1.169,4.459l-.7-.358a31.366,31.366,0,0,1,4.95-1.16,21.6,21.6,0,0,1,5.114-.2,12.8,12.8,0,0,1,5,1.354,11.632,11.632,0,0,1,2.177,1.465,7.507,7.507,0,0,1,1.665,2.1,13.746,13.746,0,0,1,1.346,5,36.343,36.343,0,0,1,.19,5.067,75.579,75.579,0,0,1-1.023,10.011l-.268-.549a34.312,34.312,0,0,0,10.355,3.8,31.584,31.584,0,0,0,11.01-.04,39.352,39.352,0,0,0,10.513-3.462,51.584,51.584,0,0,0,9.513-5.756,32.1,32.1,0,0,0,4.042-3.777c.618-.685,1.2-1.4,1.743-2.146a9.951,9.951,0,0,0,1.25-2.372,50.48,50.48,0,0,0,2.573-10.808,39.593,39.593,0,0,0,.211-11.067,25.805,25.805,0,0,0-1.576-5.286,26.671,26.671,0,0,0-2.606-4.872,25.982,25.982,0,0,0-3.559-4.216,20.5,20.5,0,0,0-4.468-3.183,13.019,13.019,0,0,0-5.208-1.48l-.677-.046c-.225,0-.45.031-.675.045a9.783,9.783,0,0,0-1.342.146,9.99,9.99,0,0,0-2.549.881,18.6,18.6,0,0,0-4.416,3.252,17.787,17.787,0,0,0-3.473,4.254,19.644,19.644,0,0,0-2.015,5.116c-.108.45-.206.9-.291,1.348a4.537,4.537,0,0,1-.456,1.447,4.9,4.9,0,0,1-2.2,2.025,12.33,12.33,0,0,1-2.749.906,21.809,21.809,0,0,1-2.823.447,23.544,23.544,0,0,1-5.7-.175,18.25,18.25,0,0,1-5.455-1.724,5.014,5.014,0,0,1-2.15-2.055,3.7,3.7,0,0,1-.374-1.492,13.534,13.534,0,0,1,.072-1.45,15.905,15.905,0,0,1,1.561-5.5,20.8,20.8,0,0,1,3.233-4.689,33.334,33.334,0,0,1,8.882-6.988,48.938,48.938,0,0,1,10.465-4.246,54.073,54.073,0,0,1,11.122-1.932,39.91,39.91,0,0,1,5.659,0,47.678,47.678,0,0,1,5.591.83,19.238,19.238,0,0,1,5.37,1.817,43.075,43.075,0,0,1,4.893,2.836c1.545,1.075,3.084,2.147,4.553,3.337a46.333,46.333,0,0,1,4.129,3.855,38.2,38.2,0,0,1,3.706,4.264,46.729,46.729,0,0,1,3.032,4.765,48.9,48.9,0,0,1,6.281,21.494,52.1,52.1,0,0,1-4.062,22.035,60.942,60.942,0,0,1-5.245,9.972,78.039,78.039,0,0,1-6.762,9.01,73.623,73.623,0,0,1-17.162,14.492q-2.411,1.461-4.933,2.727l-2.533,1.221c-.834.429-1.688.832-2.552,1.2a34.583,34.583,0,0,1-5.335,1.822l-5.438,1.466.05-.273a89.062,89.062,0,0,1,9.522,7.423c1.51,1.333,2.958,2.733,4.374,4.16l4.279,4.253c5.731,5.647,11.35,11.4,17,17.12a97.663,97.663,0,0,0,18.587,15.237,55.18,55.18,0,0,0,10.861,5.132A33.965,33.965,0,0,0,470.594,348.883Z" transform="translate(-163.944 -75.331)"/>
  </g>
  <g>
    <path class="cls-2" d="M196.916,433.42H170.482V383.545H195.8v5.286H176.326v16.591h18.017v5.252H176.326v17.459h20.59Z" transform="translate(-163.944 -75.331)"/>
    <path class="cls-2" d="M203.594,432.133v-6.121a16.879,16.879,0,0,0,10.261,3.443q7.512,0,7.513-5.009a4.349,4.349,0,0,0-.644-2.417,6.429,6.429,0,0,0-1.739-1.757,13.387,13.387,0,0,0-2.574-1.373q-1.478-.609-3.182-1.27a40.838,40.838,0,0,1-4.156-1.9,12.51,12.51,0,0,1-2.991-2.157,8.012,8.012,0,0,1-1.809-2.729,9.649,9.649,0,0,1-.609-3.583,8.508,8.508,0,0,1,1.148-4.435,10.174,10.174,0,0,1,3.061-3.234,14.269,14.269,0,0,1,4.365-1.965,19.366,19.366,0,0,1,5.061-.661,20.454,20.454,0,0,1,8.277,1.6v5.774a16.133,16.133,0,0,0-9.043-2.574,10.58,10.58,0,0,0-2.887.365,7.043,7.043,0,0,0-2.208,1.026,4.731,4.731,0,0,0-1.427,1.582,4.175,4.175,0,0,0-.5,2.035,4.881,4.881,0,0,0,.5,2.33,5.119,5.119,0,0,0,1.479,1.669,11.272,11.272,0,0,0,2.365,1.322q1.39.592,3.165,1.287a44,44,0,0,1,4.243,1.86,14.553,14.553,0,0,1,3.2,2.156,8.416,8.416,0,0,1,2.035,2.766,8.924,8.924,0,0,1,.713,3.721,8.781,8.781,0,0,1-1.165,4.592,9.98,9.98,0,0,1-3.113,3.234,14.265,14.265,0,0,1-4.486,1.913,22.172,22.172,0,0,1-5.321.626A20.21,20.21,0,0,1,203.594,432.133Z" transform="translate(-163.944 -75.331)"/>
    <path class="cls-2" d="M252.5,433.072a11.007,11.007,0,0,1-5.321,1.113q-9.356,0-9.355-10.435V402.674H231.7V397.8h6.122v-8.7l5.7-1.844V397.8H252.5v4.869h-8.974v20.068q0,3.583,1.218,5.113a4.856,4.856,0,0,0,4.034,1.53A6,6,0,0,0,252.5,428.2Z" transform="translate(-163.944 -75.331)"/>
    <path class="cls-2" d="M288.736,417.038H263.59q.139,5.947,3.2,9.183a11.03,11.03,0,0,0,8.417,3.234,17.506,17.506,0,0,0,11.061-3.965v5.355q-4.7,3.41-12.417,3.409-7.548,0-11.86-4.853t-4.312-13.651q0-8.312,4.713-13.547a15.111,15.111,0,0,1,11.7-5.234q6.992,0,10.817,4.521t3.825,12.556Zm-5.843-4.834q-.035-4.939-2.383-7.687a8.115,8.115,0,0,0-6.521-2.748,9.216,9.216,0,0,0-6.852,2.887,13.1,13.1,0,0,0-3.478,7.548Z" transform="translate(-163.944 -75.331)"/>
    <path class="cls-2" d="M303.066,433.42h-5.7V380.692h5.7Z" transform="translate(-163.944 -75.331)"/>
    <path class="cls-2" d="M340.107,433.42h-5.7v-5.564h-.139a11.941,11.941,0,0,1-10.956,6.4q-5.322,0-8.33-2.817a9.758,9.758,0,0,1-3.008-7.478q0-9.983,11.756-11.617l10.677-1.5q0-9.078-7.338-9.078a17.533,17.533,0,0,0-11.617,4.383v-5.844a22.072,22.072,0,0,1,12.1-3.339q12.555,0,12.556,13.286ZM334.4,415.4l-8.59,1.183a13.952,13.952,0,0,0-5.982,1.965q-2.019,1.409-2.018,4.991a5.435,5.435,0,0,0,1.86,4.261,7.19,7.19,0,0,0,4.957,1.652,9.156,9.156,0,0,0,7.008-2.974,10.627,10.627,0,0,0,2.765-7.53Z" transform="translate(-163.944 -75.331)"/>
    <path class="cls-2" d="M357.88,382.71l-4.869,15.512h-4.1l3.86-15.512Z" transform="translate(-163.944 -75.331)"/>
    <path class="cls-2" d="M365.011,432.133v-6.121a16.875,16.875,0,0,0,10.261,3.443q7.512,0,7.512-5.009a4.348,4.348,0,0,0-.643-2.417,6.429,6.429,0,0,0-1.739-1.757,13.387,13.387,0,0,0-2.574-1.373q-1.478-.609-3.183-1.27a41.035,41.035,0,0,1-4.156-1.9,12.55,12.55,0,0,1-2.991-2.157,8.026,8.026,0,0,1-1.809-2.729,9.67,9.67,0,0,1-.608-3.583,8.508,8.508,0,0,1,1.148-4.435,10.174,10.174,0,0,1,3.061-3.234,14.263,14.263,0,0,1,4.364-1.965,19.372,19.372,0,0,1,5.061-.661,20.455,20.455,0,0,1,8.278,1.6v5.774a16.136,16.136,0,0,0-9.043-2.574,10.58,10.58,0,0,0-2.887.365,7.059,7.059,0,0,0-2.209,1.026,4.738,4.738,0,0,0-1.426,1.582,4.175,4.175,0,0,0-.5,2.035,4.881,4.881,0,0,0,.5,2.33,5.119,5.119,0,0,0,1.479,1.669,11.272,11.272,0,0,0,2.365,1.322q1.39.592,3.165,1.287a44.108,44.108,0,0,1,4.243,1.86,14.553,14.553,0,0,1,3.2,2.156,8.43,8.43,0,0,1,2.035,2.766,8.924,8.924,0,0,1,.713,3.721,8.781,8.781,0,0,1-1.165,4.592,9.98,9.98,0,0,1-3.113,3.234,14.265,14.265,0,0,1-4.486,1.913,22.178,22.178,0,0,1-5.321.626A20.21,20.21,0,0,1,365.011,432.133Z" transform="translate(-163.944 -75.331)"/>
    <path class="cls-2" d="M417.669,433.42V383.545h13.772q26.364,0,26.364,24.312,0,11.547-7.321,18.556t-19.6,7.008Zm5.843-44.589v39.3h7.443q9.807,0,15.269-5.251T451.684,408q0-19.163-20.381-19.164Z" transform="translate(-163.944 -75.331)"/>
    <path class="cls-2" d="M495.473,417.038H470.326q.138,5.947,3.2,9.183a11.032,11.032,0,0,0,8.417,3.234A17.5,17.5,0,0,0,493,425.49v5.355q-4.7,3.41-12.417,3.409-7.547,0-11.86-4.853t-4.312-13.651q0-8.312,4.713-13.547a15.112,15.112,0,0,1,11.7-5.234q6.99,0,10.816,4.521t3.826,12.556Zm-5.844-4.834q-.035-4.939-2.382-7.687a8.118,8.118,0,0,0-6.521-2.748,9.218,9.218,0,0,0-6.853,2.887A13.1,13.1,0,0,0,470.4,412.2Z" transform="translate(-163.944 -75.331)"/>
    <path class="cls-2" d="M501.941,432.133v-6.121a16.875,16.875,0,0,0,10.261,3.443q7.512,0,7.512-5.009a4.348,4.348,0,0,0-.643-2.417,6.429,6.429,0,0,0-1.739-1.757,13.387,13.387,0,0,0-2.574-1.373q-1.478-.609-3.183-1.27a41.035,41.035,0,0,1-4.156-1.9,12.55,12.55,0,0,1-2.991-2.157,8.026,8.026,0,0,1-1.809-2.729,9.67,9.67,0,0,1-.608-3.583,8.508,8.508,0,0,1,1.148-4.435,10.174,10.174,0,0,1,3.061-3.234,14.263,14.263,0,0,1,4.364-1.965,19.372,19.372,0,0,1,5.061-.661,20.455,20.455,0,0,1,8.278,1.6v5.774a16.136,16.136,0,0,0-9.043-2.574,10.58,10.58,0,0,0-2.887.365,7.059,7.059,0,0,0-2.209,1.026,4.738,4.738,0,0,0-1.426,1.582,4.175,4.175,0,0,0-.5,2.035,4.881,4.881,0,0,0,.5,2.33,5.119,5.119,0,0,0,1.479,1.669A11.272,11.272,0,0,0,512.2,412.1q1.39.592,3.165,1.287a44.108,44.108,0,0,1,4.243,1.86,14.553,14.553,0,0,1,3.2,2.156,8.43,8.43,0,0,1,2.035,2.766,8.924,8.924,0,0,1,.713,3.721,8.781,8.781,0,0,1-1.165,4.592,9.98,9.98,0,0,1-3.113,3.234,14.265,14.265,0,0,1-4.486,1.913,22.178,22.178,0,0,1-5.321.626A20.21,20.21,0,0,1,501.941,432.133Z" transform="translate(-163.944 -75.331)"/>
    <path class="cls-2" d="M537.244,388.762a3.609,3.609,0,0,1-2.608-1.044,3.516,3.516,0,0,1-1.078-2.643,3.652,3.652,0,0,1,3.687-3.722,3.684,3.684,0,0,1,2.66,1.061,3.715,3.715,0,0,1,0,5.27A3.652,3.652,0,0,1,537.244,388.762Zm2.782,44.658h-5.7V397.8h5.7Z" transform="translate(-163.944 -75.331)"/>
    <path class="cls-2" d="M581.972,430.568q0,19.616-18.781,19.616a25.214,25.214,0,0,1-11.548-2.5v-5.7a23.711,23.711,0,0,0,11.478,3.339q13.148,0,13.147-13.981v-3.9h-.139a14.41,14.41,0,0,1-22.938,2.069q-4.052-4.748-4.052-12.747,0-9.078,4.365-14.434t11.947-5.356q7.2,0,10.678,5.773h.139V397.8h5.7Zm-5.7-13.252v-5.252A10.187,10.187,0,0,0,573.4,404.8a9.447,9.447,0,0,0-7.147-3.026,9.9,9.9,0,0,0-8.278,3.844q-2.991,3.842-2.991,10.764,0,5.949,2.87,9.513a9.269,9.269,0,0,0,7.6,3.565,9.927,9.927,0,0,0,7.808-3.408A12.705,12.705,0,0,0,576.268,417.316Z" transform="translate(-163.944 -75.331)"/>
    <path class="cls-2" d="M623.082,433.42h-5.7V413.108q0-11.339-8.277-11.339a8.982,8.982,0,0,0-7.078,3.217,11.929,11.929,0,0,0-2.8,8.122V433.42h-5.7V397.8h5.7v5.913h.14a12.853,12.853,0,0,1,11.686-6.748q5.843,0,8.938,3.773t3.1,10.9Z" transform="translate(-163.944 -75.331)"/>
    <path class="cls-2" d="M298.6,516.879v-6.887a13.34,13.34,0,0,0,2.834,1.879,22.966,22.966,0,0,0,3.479,1.408,27.536,27.536,0,0,0,3.669.887,20.438,20.438,0,0,0,3.409.313q5.391,0,8.052-2a7.5,7.5,0,0,0,1.773-9.27,10,10,0,0,0-2.452-2.729,24.337,24.337,0,0,0-3.7-2.365q-2.139-1.129-4.608-2.383-2.609-1.321-4.869-2.678a21.09,21.09,0,0,1-3.931-2.991,12.487,12.487,0,0,1-2.626-3.7,12.632,12.632,0,0,1,.539-10.782,12.834,12.834,0,0,1,3.931-4.156,17.806,17.806,0,0,1,5.548-2.435,25.394,25.394,0,0,1,6.347-.8q7.374,0,10.748,1.773v6.574q-4.418-3.062-11.339-3.062a18.655,18.655,0,0,0-3.826.4,10.788,10.788,0,0,0-3.408,1.3,7.54,7.54,0,0,0-2.435,2.33,6.187,6.187,0,0,0-.939,3.478,7.16,7.16,0,0,0,.713,3.3,8.1,8.1,0,0,0,2.1,2.539A20.932,20.932,0,0,0,311,489.055q2,1.078,4.608,2.365,2.678,1.323,5.077,2.782a23.188,23.188,0,0,1,4.209,3.234,14.388,14.388,0,0,1,2.869,3.931,11.05,11.05,0,0,1,1.061,4.938,12.527,12.527,0,0,1-1.443,6.243,11.842,11.842,0,0,1-3.9,4.156,17,17,0,0,1-5.651,2.313,31,31,0,0,1-6.747.713,27.645,27.645,0,0,1-2.922-.191q-1.74-.192-3.548-.557a28.872,28.872,0,0,1-3.426-.9A10.611,10.611,0,0,1,298.6,516.879Z" transform="translate(-163.944 -75.331)"/>
    <path class="cls-2" d="M354.523,518.549a11,11,0,0,1-5.321,1.113q-9.356,0-9.355-10.435V488.15h-6.122v-4.869h6.122v-8.7l5.7-1.844v10.539h8.973v4.869h-8.973v20.068q0,3.583,1.217,5.113a4.857,4.857,0,0,0,4.035,1.53,6,6,0,0,0,3.721-1.183Z" transform="translate(-163.944 -75.331)"/>
    <path class="cls-2" d="M390.94,518.9h-5.7v-5.635h-.14a11.712,11.712,0,0,1-10.99,6.47q-12.729,0-12.729-15.165V483.281h5.669v20.381q0,11.269,8.626,11.27a8.728,8.728,0,0,0,6.869-3.078,11.781,11.781,0,0,0,2.7-8.052V483.281h5.7Z" transform="translate(-163.944 -75.331)"/>
    <path class="cls-2" d="M432.851,518.9h-5.7v-6.052h-.139q-3.965,6.886-12.243,6.887a13.3,13.3,0,0,1-10.729-4.782q-4.018-4.783-4.018-13.025,0-8.834,4.452-14.156a14.685,14.685,0,0,1,11.86-5.321q7.337,0,10.678,5.773h.139V466.169h5.7Zm-5.7-16.1v-5.252a10.192,10.192,0,0,0-2.852-7.3,9.568,9.568,0,0,0-7.234-2.991,9.85,9.85,0,0,0-8.209,3.826q-2.991,3.826-2.991,10.573,0,6.155,2.87,9.721a9.378,9.378,0,0,0,7.7,3.565,9.741,9.741,0,0,0,7.738-3.443A12.828,12.828,0,0,0,427.146,502.793Z" transform="translate(-163.944 -75.331)"/>
    <path class="cls-2" d="M447.319,474.238a3.609,3.609,0,0,1-2.608-1.044,3.516,3.516,0,0,1-1.078-2.643,3.652,3.652,0,0,1,3.687-3.722,3.684,3.684,0,0,1,2.66,1.061,3.715,3.715,0,0,1,0,5.27A3.652,3.652,0,0,1,447.319,474.238ZM450.1,518.9h-5.7V483.281h5.7Z" transform="translate(-163.944 -75.331)"/>
    <path class="cls-2" d="M476.535,519.731q-7.9,0-12.608-4.991t-4.713-13.234q0-8.974,4.9-14.017t13.251-5.043q7.964,0,12.435,4.9t4.469,13.6q0,8.522-4.816,13.652T476.535,519.731Zm.417-32.485a10.85,10.85,0,0,0-8.7,3.739q-3.2,3.738-3.2,10.313,0,6.33,3.235,9.981a10.993,10.993,0,0,0,8.66,3.652q5.53,0,8.5-3.583t2.974-10.19q0-6.678-2.974-10.295T476.952,487.246Z" transform="translate(-163.944 -75.331)"/>
  </g>
</svg>
